<?xml version="1.0" encoding="utf-8"?>
<!-- Generator: Adobe Illustrator 27.2.0, SVG Export Plug-In . SVG Version: 6.00 Build 0)  -->
<svg version="1.1" id="Layer_1" xmlns="http://www.w3.org/2000/svg" xmlns:xlink="http://www.w3.org/1999/xlink" x="0px" y="0px"
	 viewBox="0 0 1000 1000" style="enable-background:new 0 0 1000 1000;" xml:space="preserve">
<style type="text/css">
	.st0{fill:#001C36;}
	.st1{fill:url(#SVGID_1_);}
	.st2{fill:url(#SVGID_00000073688115076956367550000016998245256047923854_);}
	.st3{fill:url(#SVGID_00000042699853783825400510000014853633796717344158_);}
	.st4{fill:url(#SVGID_00000054948137350089725930000009364185505460073906_);}
	.st5{fill:url(#SVGID_00000175324853809055711490000016478102211269712041_);}
	.st6{enable-background:new    ;}
	.st7{fill:#FFFFFF;}
	.st8{fill:url(#SVGID_00000155839547994962316000000017752905825049151165_);}
	.st9{fill:url(#SVGID_00000160908119621804660540000000209887469511172273_);}
</style>
<g>
	<g>
		<g>
			<g>
				<path class="st0" d="M327.6,341.3l-11.8-15l-26.7,10.3l0.3,101.5c0,4.3,0.1,8.6,0.4,12.9c5.3-6.7,11.4-12.7,17.9-18l-0.3-83.9
					L327.6,341.3L327.6,341.3z M500,254.7l-146,56.7l6.4,17.1L500,274.3l139.7,54.2l6.4-17.1L500,254.7z M684.2,326.3l-11.8,15
					l20.1,7.8l-0.4,83.8v0c0.4,0.3,0.8,0.7,1.2,1c5.5,4.6,11,10.1,15.7,15.7c0.3,0.4,0.7,0.8,1,1.2c0.2-4.2,0.3-8.4,0.3-12.7
					l0.5-101.6L684.2,326.3L684.2,326.3z M675.5,322.9l11.8-15l-43.7-16.9l-2.6,3.4l17.9,7.9l-4.7,12.5l-6.4,17.1L629.2,382
					l34.6-44.1L675.5,322.9L675.5,322.9L675.5,322.9z M352.2,331.7l-6.4-17.1l-4.6-12.5l17.9-7.9l-2.6-3.4l-43.6,17h0l11.8,15
					l11.8,15l34.6,44.1L352.2,331.7L352.2,331.7z"/>
				
					<linearGradient id="SVGID_1_" gradientUnits="userSpaceOnUse" x1="500.7678" y1="675.0402" x2="498.7478" y2="549.9902" gradientTransform="matrix(1 0 0 -1 0 1000)">
					<stop  offset="5.000000e-02" style="stop-color:#FF00C9"/>
					<stop  offset="1" style="stop-color:#EE0085"/>
				</linearGradient>
				<path class="st1" d="M327.6,341.3l-11.8-15l-26.7,10.3l0.3,101.5c0,4.3,0.1,8.6,0.4,12.9c5.3-6.7,11.4-12.7,17.9-18l-0.3-83.9
					L327.6,341.3L327.6,341.3z M500,254.7l-146,56.7l6.4,17.1L500,274.3l139.7,54.2l6.4-17.1L500,254.7z M684.2,326.3l-11.8,15
					l20.1,7.8l-0.4,83.8v0c0.4,0.3,0.8,0.7,1.2,1c5.5,4.6,11,10.1,15.7,15.7c0.3,0.4,0.7,0.8,1,1.2c0.2-4.2,0.3-8.4,0.3-12.7
					l0.5-101.6L684.2,326.3L684.2,326.3z M654.2,314.6l-6.4,17.1L629.2,382l34.6-44.1l11.8-15L654.2,314.6L654.2,314.6z
					 M352.2,331.7l-6.4-17.1l-21.3,8.3h0l11.8,15l34.6,44.1L352.2,331.7L352.2,331.7z"/>
				<polygon class="st0" points="370.9,382 336.3,337.9 352.2,331.7 				"/>
				<polygon class="st0" points="663.7,337.9 629.2,382 647.9,331.7 				"/>
			</g>
			<g>
				<g>
					<polygon class="st0" points="671.5,297.4 689.4,305.2 687.3,307.9 675.5,322.9 675.5,322.9 663.7,337.9 629.2,382 647.9,331.7 
						654.2,314.6 658.9,302.1 641,294.3 643.6,290.9 701.2,217.5 					"/>
					
						<linearGradient id="SVGID_00000104695605816107137310000016321289026658185105_" gradientUnits="userSpaceOnUse" x1="661.9381" y1="747.5903" x2="672.8284" y2="588.777" gradientTransform="matrix(1 0 0 -1 0 1000)">
						<stop  offset="0" style="stop-color:#00EFEF"/>
						<stop  offset="0.96" style="stop-color:#0075EC"/>
					</linearGradient>
					<polygon style="fill:url(#SVGID_00000104695605816107137310000016321289026658185105_);" points="671.5,297.4 689.4,305.2 
						687.3,307.9 675.5,322.9 675.5,322.9 663.7,337.9 629.2,382 647.9,331.7 654.2,314.6 658.9,302.1 641,294.3 643.6,290.9 
						701.2,217.5 					"/>
				</g>
				<g>
					<polygon class="st0" points="370.9,382 336.3,337.9 324.5,322.9 312.7,307.9 310.7,305.2 328.5,297.4 298.8,217.5 356.4,290.9 
						359,294.3 341.2,302.1 345.8,314.6 352.2,331.7 					"/>
					
						<linearGradient id="SVGID_00000176041410990418596200000015233206298575777159_" gradientUnits="userSpaceOnUse" x1="333.1543" y1="725.04" x2="344.0443" y2="566.24" gradientTransform="matrix(1 0 0 -1 0 1000)">
						<stop  offset="0" style="stop-color:#00EFEF"/>
						<stop  offset="0.96" style="stop-color:#0075EC"/>
					</linearGradient>
					<polygon style="fill:url(#SVGID_00000176041410990418596200000015233206298575777159_);" points="370.9,382 336.3,337.9 
						324.5,322.9 312.7,307.9 310.7,305.2 328.5,297.4 298.8,217.5 356.4,290.9 359,294.3 341.2,302.1 345.8,314.6 352.2,331.7 
											"/>
				</g>
			</g>
		</g>
		<g>
			
				<linearGradient id="SVGID_00000048499922464462517730000000341176318996768958_" gradientUnits="userSpaceOnUse" x1="397.7444" y1="575.6688" x2="373.1243" y2="294.3173" gradientTransform="matrix(1 0 0 -1 0 1000)">
				<stop  offset="0" style="stop-color:#00EFEF"/>
				<stop  offset="0.96" style="stop-color:#0075EC"/>
			</linearGradient>
			<path style="fill:url(#SVGID_00000048499922464462517730000000341176318996768958_);" d="M331.2,531.2
				c-2.7,12.1-1.1,24.4,4.9,36.6c2.9,6,6.7,11.5,11.5,17c0.9,1.1,3.7,3.8,4.9,4.9c3,2.6,6,5,9.4,7.2c3.2,2.2,6.5,4.1,9.6,5.6
				c3.8,1.9,7.3,3.2,9.9,3.7l0.7,0.1l9.5,0c8.7,0,18.8,0,31.5-0.1l5,0v-34.4h-0.6c-0.4,0-10.3-0.1-22-0.2l-21.4-0.2l-0.6-0.2
				c-1.5-0.5-3.9-1.5-5.5-2.5c-2.3-1.3-4.1-2.7-5.9-4.5c-2.1-2.1-3.6-4.3-4.9-6.9c-1.4-2.9-2.2-6-2.5-9.6c-0.1-1.2-0.1-4.1,0-5.3
				c0.3-3.9,1.2-7.2,2.7-10.2c3.1-6.3,9.1-10.8,17.2-13.2c1.6-0.5,3.4-0.8,5.5-1.1c0.6-0.1,3.2-0.1,47.4-0.1l46.7,0v197.5l-2.1,0
				c-2.1,0-2.6,0-4.4-0.2c-7.3-0.7-14.6-3-20.7-6.4c-3.8-2.1-6.9-4.4-10-7.5c-8.6-8.5-14.6-17.2-17.5-25.4c-0.8-2.4-1.4-4.7-1.7-6.9
				c-0.4-3.1-0.2-6.5,0.5-8.6c0.1-0.3,0.2-0.5,0.1-0.5c0,0-9.6,0.1-21.9,0.1c-0.8,0-1.6,0-2.5,0c-12.7,0.1-20.1,0.1-24.5,0.1
				c-3.8,0-5.3,0-6.2-0.1c-8.5-0.5-16.5-2.1-24.5-4.7c-13.3-4.4-25.7-11.6-36.4-20.9c-3.2-2.8-6.9-6.5-9.7-9.7
				c-15.3-17.5-24.4-39.5-26.4-64c-0.3-3.8-0.4-6-0.4-10.5c0-3.9,0-5.1,0.2-8.1c1-16,4.9-31.3,11.5-45.3c1.1-2.3,2.3-4.6,3.5-6.9
				c3.3-6,7.1-11.6,11.4-16.8c5-6.2,10.7-11.9,16.8-17c4.9-4,10.2-7.6,15.7-10.8c14.4-8.1,30.1-12.7,45.1-13c0.3,0,23.9,0,52.3,0
				l51.7,0v54l-51,0c-55.3,0-50.9,0-52.9,0.3c-3.5,0.5-8.1,1.9-12.4,3.7c-6.7,2.8-12.8,6.6-17.8,11c-1.4,1.2-4.5,4.4-6.1,6.2
				c-5.9,6.8-10,14.5-12.1,22.5C331.5,530.2,331.4,530.7,331.2,531.2L331.2,531.2z"/>
			
				<linearGradient id="SVGID_00000181794521420816741620000014541002472496974474_" gradientUnits="userSpaceOnUse" x1="557.9185" y1="580.7771" x2="637.9024" y2="319.1742" gradientTransform="matrix(1 0 0 -1 0 1000)">
				<stop  offset="0.1" style="stop-color:#FF00C9"/>
				<stop  offset="1" style="stop-color:#EE0085"/>
			</linearGradient>
			<path style="fill:url(#SVGID_00000181794521420816741620000014541002472496974474_);" d="M724.3,551.2c0,3.6-0.1,4.4-0.2,7.2
				c-0.5,8.2-1.8,16.2-3.9,23.8c-3.9,14.1-10.4,27-19.3,38.3c-5.6,7-12.1,13.3-19.3,18.8c-13.7,10.3-29.7,17.1-46,19.6
				c-2.8,0.4-4.9,0.6-8.7,0.9c-0.3,0-2.2,0-6.4,0c-4.4,0-11.3,0-21.5,0h-5.7l-21.2,0l0,0.1c0.9,3.1,0.9,7.2-0.1,11.5
				c-0.3,1.3-0.7,2.6-1.1,3.9h0c-2.8,8.2-8.6,16.8-17.2,25.4c-3.1,3.1-6.2,5.5-9.9,7.6c-7.6,4.3-17,6.8-26,6.8h-1.7V517.7l46.9,0
				l46.9,0l1,0.2c4,0.6,7.3,1.7,10.5,3.2c2.3,1.1,4.3,2.4,6,3.9c4.9,4.3,7.5,9.7,8.1,16.9c0,0.3,0.1,1.3,0.1,2.2
				c0.1,6.7-1.6,12.6-5.3,17.3c-1.4,1.9-3.4,3.8-5.3,5.3c-2.4,1.8-5.3,3.3-8,4.2l-1,0.3l-19.5,0.2c-10.7,0.1-20.6,0.2-22.1,0.2
				l-2.6,0v34.4l3.5,0c7.9,0.1,21.5,0.2,31.7,0.2c10.5,0,11,0,11.5-0.1c2.6-0.5,5.8-1.7,9.4-3.4c5.3-2.5,11.1-6.2,16.1-10.2
				c2.4-1.9,4-3.3,6-5.4c2-2,3.3-3.4,5.1-5.7c7.7-9.7,12.7-20.6,14.3-31.4c0.9-6.4,0.6-13-0.9-19.2c-1-4.2-1-4.2,0,0
				c-1.1-4.6-2.8-9.1-5.1-13.2c-3-5.3-6.7-10.1-11.8-15.1c-3.5-3.5-7.5-6.4-12.4-9.1c-1.2-0.6-4.4-2.3-5.5-2.8
				c-5.5-2.4-10.3-3.9-15-4.5c-0.7-0.1-3.3-0.1-51.7-0.1l-51,0v-54l53,0c57.5,0,53.1,0,56.4,0.3c19.4,1.7,38.8,9.9,55.2,23.3v0
				c0.4,0.3,0.8,0.6,1.2,1c5.2,4.4,10.4,9.5,14.7,14.8c0.3,0.4,0.6,0.8,1,1.2v0c5.9,7.3,10.9,15.2,14.9,23.6
				c5.3,11,8.8,22.9,10.6,35.3C723.9,538.2,724.3,543.9,724.3,551.2L724.3,551.2z"/>
		</g>
		<g class="st6">
			<path class="st7" d="M395.2,335.9v18.8h29.2l-7.6,7.6h-24.1l-7.7-7.6v-18.6l7.7-7.8h32.9l-7.5,7.6H395.2z"/>
			<path class="st7" d="M439,328.3l10.9,10.9l10.9-10.9h12.2l-17.9,18v16h-10.3v-16l-18-18H439z"/>
			<path class="st7" d="M477,328.3h36l7.7,10.5l-4.8,6.6l4.8,6.6l-7.7,10.5h-36V328.3z M507,341.9l2.5-3.2l-2.5-2.8h-19.7v6H507z
				 M507,354.7l2.5-2.8l-2.5-3.1h-19.7v5.9H507z"/>
			<path class="st7" d="M526.6,328.3h40.7l-7.5,7.6h-22.9v6h25.4l-6.9,6.9h-18.5v5.9h29.2l-7.6,7.6h-31.9V328.3z"/>
			<path class="st7" d="M572.3,328.3h35.5l7.7,10.5l-5.9,7.9l5.9,5.9v9.7h-10.3V354l-3.1-3h-19.6v11.4h-10.3V328.3z M582.5,343.2
				h19.7l2.8-3.8l-2.7-3.5h-19.8V343.2z"/>
		</g>
		<g class="st6">
			<path class="st7" d="M420,379.2v18.8h29.2l-7.6,7.6h-24.1l-7.7-7.6v-18.6l7.7-7.8h32.9l-7.5,7.6H420z"/>
			<path class="st7" d="M465.5,397.9h29.2l-7.6,7.6h-31.9v-34l10.3-5.9V397.9z"/>
			<path class="st7" d="M529.9,371.5h10.3v26.3l-7.7,7.7h-25.8l-7.7-7.7v-26.3l10.3,0v26.4h20.7V371.5z"/>
			<path class="st7" d="M547.5,371.5h36l7.7,10.5l-4.8,6.6l4.8,6.6l-7.7,10.5h-36V371.5z M577.5,385.1l2.5-3.2l-2.5-2.8h-19.7v6
				H577.5z M577.5,397.9l2.5-2.8l-2.5-3.1h-19.7v5.9H577.5z"/>
		</g>
	</g>
	<g>
		
			<linearGradient id="SVGID_00000042733585324000918180000002353839788722301618_" gradientUnits="userSpaceOnUse" x1="388.655" y1="250.15" x2="388.655" y2="217.51" gradientTransform="matrix(1 0 0 -1 0 1000)">
			<stop  offset="0.1" style="stop-color:#FF00C9"/>
			<stop  offset="1" style="stop-color:#EE0085"/>
		</linearGradient>
		<path style="fill:url(#SVGID_00000042733585324000918180000002353839788722301618_);" d="M304.7,757.2v18h18.1v-5.6h-6.7l-6.7-6.6
			h23.2v12.3l-7.3,7.3h-23.1l-7.4-7.3v-17.8l7.4-7.5h31.6l-7.2,7.3H304.7z M339.1,782.4v-25.3l7.4-7.3h24.7l7.4,7.3v25.3h-9.8v-9.3
			h-19.9v9.4L339.1,782.4L339.1,782.4z M348.9,757.2v8.8h19.9v-8.8H348.9z M385.7,782.5v-32.6h11.1l14.1,19.4l14.1-19.4h11.1v32.6
			h-9.8v-20.8l-12.2,16.8h-6.4l-12.2-16.8v20.8L385.7,782.5L385.7,782.5z M443.5,749.8h39l-7.2,7.3h-21.9v5.7h24.4l-6.6,6.6h-17.8
			v5.6h28l-7.3,7.3h-30.5V749.8z"/>
		
			<linearGradient id="SVGID_00000031166696816282534030000011728932375288735657_" gradientUnits="userSpaceOnUse" x1="605.515" y1="250.16" x2="605.515" y2="217.52" gradientTransform="matrix(1 0 0 -1 0 1000)">
			<stop  offset="0" style="stop-color:#00EFEF"/>
			<stop  offset="0.96" style="stop-color:#0075EC"/>
		</linearGradient>
		<path style="fill:url(#SVGID_00000031166696816282534030000011728932375288735657_);" d="M505.9,749.8h34.1l7.4,10.1l-8.6,11.7
			h-23v10.9h-9.8L505.9,749.8L505.9,749.8z M515.7,757.2v7h18.9l2.6-3.6l-2.6-3.4L515.7,757.2L515.7,757.2z M585.8,749.8l7.4,7.4
			v17.8l-7.4,7.4h-27.1l-7.4-7.4v-17.8l7.4-7.4H585.8z M583.4,757.2h-22.3v18h22.3V757.2z M599.9,749.8h9.8v32.6l-9.8,0V749.8
			L599.9,749.8z M617.1,782.4v-32.6h6.9l23.7,19.5v-19.5h9.8v32.6h-7.5l-23.1-19v19L617.1,782.4L617.1,782.4z M661.5,749.8h43.7
			l-7.2,7.3h-9.7v25.3h-9.8v-25.3h-9.7L661.5,749.8L661.5,749.8z"/>
	</g>
</g>
</svg>
